<svg width="25" height="24" viewBox="0 0 25 24" fill="none" xmlns="http://www.w3.org/2000/svg">
<path fill-rule="evenodd" clip-rule="evenodd" d="M8.62953 23.3287C10.2137 23.3287 11.6355 22.6339 12.6069 21.5325C13.5784 22.6339 15.0002 23.3287 16.5844 23.3287C19.5123 23.3287 21.8859 20.9552 21.8859 18.0272C21.8859 16.9664 21.5743 15.9784 21.0377 15.1497C22.9947 14.3699 24.3778 12.4579 24.3778 10.2228C24.3778 7.29488 22.0042 4.92132 19.0763 4.92132C18.656 4.92132 18.2471 4.97023 17.855 5.06268C17.4895 2.49125 15.2789 0.513916 12.6065 0.513916C9.86692 0.513916 7.61267 2.59194 7.334 5.25776C6.97039 5.17895 6.59288 5.13744 6.20568 5.13744C3.27774 5.13744 0.904175 7.511 0.904175 10.4389C0.904175 12.6122 2.21185 14.48 4.08327 15.2985C3.60379 16.0957 3.32803 17.0292 3.32803 18.0272C3.32803 20.9552 5.7016 23.3287 8.62953 23.3287ZM12.641 17.7173C15.5689 17.7173 17.9425 15.3437 17.9425 12.4158C17.9425 9.48785 15.5689 7.11429 12.641 7.11429C9.71304 7.11429 7.33948 9.48785 7.33948 12.4158C7.33948 15.3437 9.71304 17.7173 12.641 17.7173Z" fill="black"/>
</svg>
